<mxfile host="app.diagrams.net" agent="Mozilla/5.0 (Macintosh; Intel Mac OS X 10_15_7) AppleWebKit/537.36 (KHTML, like Gecko) Chrome/139.0.0.0 Safari/537.36" version="28.0.9">
  <diagram name="Page-1" id="sUdMuPfdtWDkw-8FiHI2">
    <mxGraphModel dx="4754" dy="3396" grid="1" gridSize="10" guides="1" tooltips="1" connect="1" arrows="1" fold="1" page="1" pageScale="1" pageWidth="850" pageHeight="1100" math="0" shadow="0">
      <root>
        <mxCell id="0" />
        <mxCell id="1" parent="0" />
        <mxCell id="PvUwMP0Rzv3YbJZ_aNjT-94" value="" style="rounded=0;whiteSpace=wrap;html=1;" vertex="1" parent="1">
          <mxGeometry x="-400" y="582" width="1260" height="410" as="geometry" />
        </mxCell>
        <mxCell id="PvUwMP0Rzv3YbJZ_aNjT-7" value="" style="rounded=0;whiteSpace=wrap;html=1;" vertex="1" parent="1">
          <mxGeometry x="95" y="230" width="340" height="162" as="geometry" />
        </mxCell>
        <mxCell id="PvUwMP0Rzv3YbJZ_aNjT-9" value="" style="rounded=0;whiteSpace=wrap;html=1;" vertex="1" parent="1">
          <mxGeometry x="127" y="672" width="330" height="198" as="geometry" />
        </mxCell>
        <mxCell id="PvUwMP0Rzv3YbJZ_aNjT-6" value="" style="rounded=0;whiteSpace=wrap;html=1;" vertex="1" parent="1">
          <mxGeometry x="109" y="248" width="70" height="110" as="geometry" />
        </mxCell>
        <mxCell id="PvUwMP0Rzv3YbJZ_aNjT-8" value="supabase DB" style="rounded=0;whiteSpace=wrap;html=1;" vertex="1" parent="1">
          <mxGeometry x="-350" y="32" width="170" height="90" as="geometry" />
        </mxCell>
        <mxCell id="PvUwMP0Rzv3YbJZ_aNjT-10" value="Front end (Client) - Mobile webpage&lt;br&gt;(Logged in Tenant 1)" style="text;html=1;align=center;verticalAlign=middle;resizable=0;points=[];autosize=1;strokeColor=none;fillColor=none;" vertex="1" parent="1">
          <mxGeometry x="187" y="867" width="210" height="40" as="geometry" />
        </mxCell>
        <mxCell id="PvUwMP0Rzv3YbJZ_aNjT-12" value="Tenant 1" style="text;html=1;align=center;verticalAlign=middle;resizable=0;points=[];autosize=1;strokeColor=none;fillColor=none;" vertex="1" parent="1">
          <mxGeometry x="109" y="358" width="70" height="30" as="geometry" />
        </mxCell>
        <mxCell id="PvUwMP0Rzv3YbJZ_aNjT-20" value="" style="rounded=0;whiteSpace=wrap;html=1;" vertex="1" parent="1">
          <mxGeometry x="269" y="248" width="70" height="110" as="geometry" />
        </mxCell>
        <mxCell id="PvUwMP0Rzv3YbJZ_aNjT-21" value="" style="rounded=0;whiteSpace=wrap;html=1;" vertex="1" parent="1">
          <mxGeometry x="349" y="248" width="70" height="110" as="geometry" />
        </mxCell>
        <mxCell id="PvUwMP0Rzv3YbJZ_aNjT-23" value="Tenant 2" style="text;html=1;align=center;verticalAlign=middle;resizable=0;points=[];autosize=1;strokeColor=none;fillColor=none;" vertex="1" parent="1">
          <mxGeometry x="189" y="358" width="70" height="30" as="geometry" />
        </mxCell>
        <mxCell id="PvUwMP0Rzv3YbJZ_aNjT-24" value="Tenant 3" style="text;html=1;align=center;verticalAlign=middle;resizable=0;points=[];autosize=1;strokeColor=none;fillColor=none;" vertex="1" parent="1">
          <mxGeometry x="269" y="358" width="70" height="30" as="geometry" />
        </mxCell>
        <mxCell id="PvUwMP0Rzv3YbJZ_aNjT-25" value="Tenant 4" style="text;html=1;align=center;verticalAlign=middle;resizable=0;points=[];autosize=1;strokeColor=none;fillColor=none;" vertex="1" parent="1">
          <mxGeometry x="349" y="358" width="70" height="30" as="geometry" />
        </mxCell>
        <mxCell id="PvUwMP0Rzv3YbJZ_aNjT-26" value="Websocket" style="text;html=1;align=center;verticalAlign=middle;resizable=0;points=[];autosize=1;strokeColor=none;fillColor=none;" vertex="1" parent="1">
          <mxGeometry x="210" y="512" width="80" height="30" as="geometry" />
        </mxCell>
        <mxCell id="PvUwMP0Rzv3YbJZ_aNjT-28" value="streamer 1" style="rounded=0;whiteSpace=wrap;html=1;" vertex="1" parent="1">
          <mxGeometry x="118.5" y="252" width="51" height="30" as="geometry" />
        </mxCell>
        <mxCell id="PvUwMP0Rzv3YbJZ_aNjT-29" value="streamer&lt;div&gt;2&lt;/div&gt;" style="rounded=0;whiteSpace=wrap;html=1;" vertex="1" parent="1">
          <mxGeometry x="118.5" y="288" width="51" height="30" as="geometry" />
        </mxCell>
        <mxCell id="PvUwMP0Rzv3YbJZ_aNjT-30" value="streamer&lt;div&gt;3&lt;/div&gt;" style="rounded=0;whiteSpace=wrap;html=1;" vertex="1" parent="1">
          <mxGeometry x="118.5" y="322" width="51" height="30" as="geometry" />
        </mxCell>
        <mxCell id="PvUwMP0Rzv3YbJZ_aNjT-35" value="" style="rounded=0;whiteSpace=wrap;html=1;" vertex="1" parent="1">
          <mxGeometry x="189" y="248" width="70" height="110" as="geometry" />
        </mxCell>
        <mxCell id="PvUwMP0Rzv3YbJZ_aNjT-36" value="streamer 2" style="rounded=0;whiteSpace=wrap;html=1;" vertex="1" parent="1">
          <mxGeometry x="198.5" y="252" width="51" height="30" as="geometry" />
        </mxCell>
        <mxCell id="PvUwMP0Rzv3YbJZ_aNjT-37" value="streamer 1" style="rounded=0;whiteSpace=wrap;html=1;" vertex="1" parent="1">
          <mxGeometry x="198.5" y="288" width="51" height="30" as="geometry" />
        </mxCell>
        <mxCell id="PvUwMP0Rzv3YbJZ_aNjT-38" value="streamer 3" style="rounded=0;whiteSpace=wrap;html=1;" vertex="1" parent="1">
          <mxGeometry x="198.5" y="322" width="51" height="30" as="geometry" />
        </mxCell>
        <mxCell id="PvUwMP0Rzv3YbJZ_aNjT-39" value="streamer a" style="rounded=0;whiteSpace=wrap;html=1;" vertex="1" parent="1">
          <mxGeometry x="278.5" y="252" width="51" height="30" as="geometry" />
        </mxCell>
        <mxCell id="PvUwMP0Rzv3YbJZ_aNjT-40" value="streamer c" style="rounded=0;whiteSpace=wrap;html=1;" vertex="1" parent="1">
          <mxGeometry x="278.5" y="288" width="51" height="30" as="geometry" />
        </mxCell>
        <mxCell id="PvUwMP0Rzv3YbJZ_aNjT-41" value="streamer b" style="rounded=0;whiteSpace=wrap;html=1;" vertex="1" parent="1">
          <mxGeometry x="278.5" y="322" width="51" height="30" as="geometry" />
        </mxCell>
        <mxCell id="PvUwMP0Rzv3YbJZ_aNjT-42" value="streamer b" style="rounded=0;whiteSpace=wrap;html=1;" vertex="1" parent="1">
          <mxGeometry x="358.5" y="252" width="51" height="30" as="geometry" />
        </mxCell>
        <mxCell id="PvUwMP0Rzv3YbJZ_aNjT-43" value="streamer a" style="rounded=0;whiteSpace=wrap;html=1;" vertex="1" parent="1">
          <mxGeometry x="358.5" y="288" width="51" height="30" as="geometry" />
        </mxCell>
        <mxCell id="PvUwMP0Rzv3YbJZ_aNjT-44" value="streamer c" style="rounded=0;whiteSpace=wrap;html=1;" vertex="1" parent="1">
          <mxGeometry x="358.5" y="322" width="51" height="30" as="geometry" />
        </mxCell>
        <mxCell id="PvUwMP0Rzv3YbJZ_aNjT-50" style="edgeStyle=orthogonalEdgeStyle;rounded=0;orthogonalLoop=1;jettySize=auto;html=1;exitX=0.75;exitY=0;exitDx=0;exitDy=0;entryX=0.75;entryY=1;entryDx=0;entryDy=0;" edge="1" parent="1" source="PvUwMP0Rzv3YbJZ_aNjT-46" target="PvUwMP0Rzv3YbJZ_aNjT-48">
          <mxGeometry relative="1" as="geometry" />
        </mxCell>
        <mxCell id="PvUwMP0Rzv3YbJZ_aNjT-46" value="tiktok-live-connector" style="rounded=0;whiteSpace=wrap;html=1;" vertex="1" parent="1">
          <mxGeometry x="205" y="102" width="120" height="60" as="geometry" />
        </mxCell>
        <mxCell id="PvUwMP0Rzv3YbJZ_aNjT-49" style="edgeStyle=orthogonalEdgeStyle;rounded=0;orthogonalLoop=1;jettySize=auto;html=1;exitX=0.25;exitY=1;exitDx=0;exitDy=0;entryX=0.25;entryY=0;entryDx=0;entryDy=0;" edge="1" parent="1" source="PvUwMP0Rzv3YbJZ_aNjT-48" target="PvUwMP0Rzv3YbJZ_aNjT-46">
          <mxGeometry relative="1" as="geometry" />
        </mxCell>
        <mxCell id="PvUwMP0Rzv3YbJZ_aNjT-48" value="tiktok.com" style="rounded=0;whiteSpace=wrap;html=1;" vertex="1" parent="1">
          <mxGeometry x="205" y="-38" width="120" height="60" as="geometry" />
        </mxCell>
        <mxCell id="PvUwMP0Rzv3YbJZ_aNjT-54" value="" style="endArrow=classic;startArrow=classic;html=1;rounded=0;entryX=0.75;entryY=1;entryDx=0;entryDy=0;exitX=0.612;exitY=0.004;exitDx=0;exitDy=0;exitPerimeter=0;" edge="1" parent="1" source="PvUwMP0Rzv3YbJZ_aNjT-7" target="PvUwMP0Rzv3YbJZ_aNjT-46">
          <mxGeometry width="50" height="50" relative="1" as="geometry">
            <mxPoint x="270" y="232" as="sourcePoint" />
            <mxPoint x="320" y="182" as="targetPoint" />
          </mxGeometry>
        </mxCell>
        <mxCell id="PvUwMP0Rzv3YbJZ_aNjT-55" value="" style="endArrow=classic;startArrow=classic;html=1;rounded=0;entryX=0.205;entryY=0.972;entryDx=0;entryDy=0;entryPerimeter=0;exitX=0.158;exitY=0;exitDx=0;exitDy=0;exitPerimeter=0;" edge="1" parent="1" source="PvUwMP0Rzv3YbJZ_aNjT-7">
          <mxGeometry width="50" height="50" relative="1" as="geometry">
            <mxPoint x="160" y="233.68" as="sourcePoint" />
            <mxPoint x="229.60000000000014" y="162.00000000000017" as="targetPoint" />
          </mxGeometry>
        </mxCell>
        <mxCell id="PvUwMP0Rzv3YbJZ_aNjT-56" value="" style="endArrow=classic;startArrow=classic;html=1;rounded=0;entryX=0.415;entryY=1.034;entryDx=0;entryDy=0;entryPerimeter=0;" edge="1" parent="1" target="PvUwMP0Rzv3YbJZ_aNjT-46">
          <mxGeometry width="50" height="50" relative="1" as="geometry">
            <mxPoint x="228.5" y="230" as="sourcePoint" />
            <mxPoint x="278.5" y="180" as="targetPoint" />
          </mxGeometry>
        </mxCell>
        <mxCell id="PvUwMP0Rzv3YbJZ_aNjT-57" value="" style="endArrow=classic;startArrow=classic;html=1;rounded=0;entryX=0.847;entryY=-0.005;entryDx=0;entryDy=0;entryPerimeter=0;exitX=0.927;exitY=1.022;exitDx=0;exitDy=0;exitPerimeter=0;" edge="1" parent="1" source="PvUwMP0Rzv3YbJZ_aNjT-46" target="PvUwMP0Rzv3YbJZ_aNjT-7">
          <mxGeometry width="50" height="50" relative="1" as="geometry">
            <mxPoint x="329.5" y="192" as="sourcePoint" />
            <mxPoint x="379.5" y="142" as="targetPoint" />
          </mxGeometry>
        </mxCell>
        <mxCell id="PvUwMP0Rzv3YbJZ_aNjT-60" value="" style="shape=image;html=1;verticalAlign=top;verticalLabelPosition=bottom;labelBackgroundColor=#ffffff;imageAspect=0;aspect=fixed;image=https://icons.diagrams.net/icon-cache1/Online_Marketing_Hand_Drawn_vol_4-2934/web__globe__data__technology__list__menu__webpage-562.svg" vertex="1" parent="1">
          <mxGeometry x="217" y="692" width="150" height="150" as="geometry" />
        </mxCell>
        <mxCell id="PvUwMP0Rzv3YbJZ_aNjT-61" value="" style="rounded=0;whiteSpace=wrap;html=1;" vertex="1" parent="1">
          <mxGeometry x="515" y="672" width="330" height="198" as="geometry" />
        </mxCell>
        <mxCell id="PvUwMP0Rzv3YbJZ_aNjT-62" value="Front end (Client) - Tablet webpage&lt;br&gt;(Logged in Tenant 2)" style="text;html=1;align=center;verticalAlign=middle;resizable=0;points=[];autosize=1;strokeColor=none;fillColor=none;" vertex="1" parent="1">
          <mxGeometry x="575" y="867" width="210" height="40" as="geometry" />
        </mxCell>
        <mxCell id="PvUwMP0Rzv3YbJZ_aNjT-63" value="" style="shape=image;html=1;verticalAlign=top;verticalLabelPosition=bottom;labelBackgroundColor=#ffffff;imageAspect=0;aspect=fixed;image=https://icons.diagrams.net/icon-cache1/Online_Marketing_Hand_Drawn_vol_4-2934/web__globe__data__technology__list__menu__webpage-562.svg" vertex="1" parent="1">
          <mxGeometry x="605" y="692" width="150" height="150" as="geometry" />
        </mxCell>
        <mxCell id="PvUwMP0Rzv3YbJZ_aNjT-64" value="" style="rounded=0;whiteSpace=wrap;html=1;" vertex="1" parent="1">
          <mxGeometry x="-321" y="672" width="330" height="198" as="geometry" />
        </mxCell>
        <mxCell id="PvUwMP0Rzv3YbJZ_aNjT-65" value="Front end (Client) - Desktop&lt;br&gt;(Logged in Tenant 3)" style="text;html=1;align=center;verticalAlign=middle;resizable=0;points=[];autosize=1;strokeColor=none;fillColor=none;" vertex="1" parent="1">
          <mxGeometry x="-241" y="867" width="170" height="40" as="geometry" />
        </mxCell>
        <mxCell id="PvUwMP0Rzv3YbJZ_aNjT-66" value="" style="shape=image;html=1;verticalAlign=top;verticalLabelPosition=bottom;labelBackgroundColor=#ffffff;imageAspect=0;aspect=fixed;image=https://icons.diagrams.net/icon-cache1/Online_Marketing_Hand_Drawn_vol_4-2934/web__globe__data__technology__list__menu__webpage-562.svg" vertex="1" parent="1">
          <mxGeometry x="-231" y="692" width="150" height="150" as="geometry" />
        </mxCell>
        <mxCell id="PvUwMP0Rzv3YbJZ_aNjT-67" value="Node js backend" style="text;html=1;align=center;verticalAlign=middle;resizable=0;points=[];autosize=1;strokeColor=none;fillColor=none;" vertex="1" parent="1">
          <mxGeometry x="450" y="296" width="110" height="30" as="geometry" />
        </mxCell>
        <mxCell id="PvUwMP0Rzv3YbJZ_aNjT-72" value="status table" style="rounded=0;whiteSpace=wrap;html=1;" vertex="1" parent="1">
          <mxGeometry x="-325" y="142" width="120" height="60" as="geometry" />
        </mxCell>
        <mxCell id="PvUwMP0Rzv3YbJZ_aNjT-73" value="room_records" style="whiteSpace=wrap;html=1;" vertex="1" parent="1">
          <mxGeometry x="-325" y="212" width="120" height="60" as="geometry" />
        </mxCell>
        <mxCell id="PvUwMP0Rzv3YbJZ_aNjT-74" value="" style="whiteSpace=wrap;html=1;" vertex="1" parent="1">
          <mxGeometry x="1040" y="672" width="240" height="210" as="geometry" />
        </mxCell>
        <mxCell id="PvUwMP0Rzv3YbJZ_aNjT-75" value="streamer username" style="text;html=1;align=center;verticalAlign=middle;resizable=0;points=[];autosize=1;strokeColor=none;fillColor=none;" vertex="1" parent="1">
          <mxGeometry x="1040" y="672" width="130" height="30" as="geometry" />
        </mxCell>
        <mxCell id="PvUwMP0Rzv3YbJZ_aNjT-76" value="viewer count" style="text;html=1;align=center;verticalAlign=middle;resizable=0;points=[];autosize=1;strokeColor=none;fillColor=none;" vertex="1" parent="1">
          <mxGeometry x="1180" y="712" width="90" height="30" as="geometry" />
        </mxCell>
        <mxCell id="PvUwMP0Rzv3YbJZ_aNjT-77" value="websocket status&lt;br&gt;connected/ disconnected" style="text;html=1;align=center;verticalAlign=middle;resizable=0;points=[];autosize=1;strokeColor=none;fillColor=none;" vertex="1" parent="1">
          <mxGeometry x="1030" y="802" width="160" height="40" as="geometry" />
        </mxCell>
        <mxCell id="PvUwMP0Rzv3YbJZ_aNjT-78" value="streamer status&lt;br&gt;online/ offline" style="text;html=1;align=center;verticalAlign=middle;resizable=0;points=[];autosize=1;strokeColor=none;fillColor=none;" vertex="1" parent="1">
          <mxGeometry x="1170" y="732" width="110" height="40" as="geometry" />
        </mxCell>
        <mxCell id="PvUwMP0Rzv3YbJZ_aNjT-79" value="" style="endArrow=none;html=1;rounded=0;" edge="1" parent="1">
          <mxGeometry width="50" height="50" relative="1" as="geometry">
            <mxPoint x="1273" y="736" as="sourcePoint" />
            <mxPoint x="1183" y="736" as="targetPoint" />
          </mxGeometry>
        </mxCell>
        <mxCell id="PvUwMP0Rzv3YbJZ_aNjT-86" value="" style="endArrow=classic;startArrow=classic;html=1;rounded=0;exitX=0.5;exitY=0;exitDx=0;exitDy=0;" edge="1" parent="1" source="PvUwMP0Rzv3YbJZ_aNjT-61">
          <mxGeometry width="50" height="50" relative="1" as="geometry">
            <mxPoint x="380" y="532" as="sourcePoint" />
            <mxPoint x="380" y="392" as="targetPoint" />
            <Array as="points">
              <mxPoint x="680" y="552" />
              <mxPoint x="380" y="552" />
            </Array>
          </mxGeometry>
        </mxCell>
        <mxCell id="PvUwMP0Rzv3YbJZ_aNjT-87" value="" style="endArrow=classic;startArrow=classic;html=1;rounded=0;exitX=0.547;exitY=-0.017;exitDx=0;exitDy=0;exitPerimeter=0;" edge="1" parent="1" source="PvUwMP0Rzv3YbJZ_aNjT-64">
          <mxGeometry width="50" height="50" relative="1" as="geometry">
            <mxPoint x="110" y="442" as="sourcePoint" />
            <mxPoint x="160" y="392" as="targetPoint" />
            <Array as="points">
              <mxPoint x="-140" y="512" />
              <mxPoint x="160" y="512" />
            </Array>
          </mxGeometry>
        </mxCell>
        <mxCell id="PvUwMP0Rzv3YbJZ_aNjT-88" value="" style="endArrow=classic;startArrow=classic;html=1;rounded=0;" edge="1" parent="1" source="PvUwMP0Rzv3YbJZ_aNjT-9">
          <mxGeometry width="50" height="50" relative="1" as="geometry">
            <mxPoint x="240" y="442" as="sourcePoint" />
            <mxPoint x="290" y="392" as="targetPoint" />
          </mxGeometry>
        </mxCell>
        <mxCell id="PvUwMP0Rzv3YbJZ_aNjT-89" value="API Interaction with server&lt;br&gt;Add/ Remove/ Get" style="text;html=1;align=center;verticalAlign=middle;resizable=0;points=[];autosize=1;strokeColor=none;fillColor=none;" vertex="1" parent="1">
          <mxGeometry x="-130" y="612" width="160" height="40" as="geometry" />
        </mxCell>
        <mxCell id="PvUwMP0Rzv3YbJZ_aNjT-90" value="High level architecture" style="text;html=1;align=center;verticalAlign=middle;resizable=0;points=[];autosize=1;strokeColor=none;fillColor=none;fontSize=60;" vertex="1" parent="1">
          <mxGeometry x="-45" y="-250" width="620" height="90" as="geometry" />
        </mxCell>
        <mxCell id="PvUwMP0Rzv3YbJZ_aNjT-91" value="Target data fetch platform" style="text;html=1;align=center;verticalAlign=middle;resizable=0;points=[];autosize=1;strokeColor=none;fillColor=none;" vertex="1" parent="1">
          <mxGeometry x="355" y="-23" width="160" height="30" as="geometry" />
        </mxCell>
        <mxCell id="PvUwMP0Rzv3YbJZ_aNjT-92" value="Middle man interacting with&amp;nbsp;&lt;br&gt;tiktok library" style="text;html=1;align=center;verticalAlign=middle;resizable=0;points=[];autosize=1;strokeColor=none;fillColor=none;" vertex="1" parent="1">
          <mxGeometry x="349" y="112" width="170" height="40" as="geometry" />
        </mxCell>
        <mxCell id="PvUwMP0Rzv3YbJZ_aNjT-95" value="Front end:&lt;br&gt;Vercel" style="text;html=1;align=center;verticalAlign=middle;resizable=0;points=[];autosize=1;strokeColor=none;fillColor=none;" vertex="1" parent="1">
          <mxGeometry x="-390" y="595" width="80" height="40" as="geometry" />
        </mxCell>
        <mxCell id="PvUwMP0Rzv3YbJZ_aNjT-96" value="" style="endArrow=none;html=1;rounded=0;" edge="1" parent="1">
          <mxGeometry width="50" height="50" relative="1" as="geometry">
            <mxPoint x="-796" y="1040" as="sourcePoint" />
            <mxPoint x="1630" y="1040" as="targetPoint" />
          </mxGeometry>
        </mxCell>
        <mxCell id="PvUwMP0Rzv3YbJZ_aNjT-97" value="Add room high level and read and write flow" style="text;html=1;align=center;verticalAlign=middle;resizable=0;points=[];autosize=1;strokeColor=none;fillColor=none;" vertex="1" parent="1">
          <mxGeometry x="-800" y="1070" width="260" height="30" as="geometry" />
        </mxCell>
        <mxCell id="PvUwMP0Rzv3YbJZ_aNjT-98" value="table 1" style="rounded=0;whiteSpace=wrap;html=1;" vertex="1" parent="1">
          <mxGeometry x="-760" y="1390" width="120" height="60" as="geometry" />
        </mxCell>
        <mxCell id="PvUwMP0Rzv3YbJZ_aNjT-99" value="table 1" style="rounded=0;whiteSpace=wrap;html=1;" vertex="1" parent="1">
          <mxGeometry x="-760" y="1490" width="120" height="60" as="geometry" />
        </mxCell>
        <mxCell id="PvUwMP0Rzv3YbJZ_aNjT-100" value="table 1" style="rounded=0;whiteSpace=wrap;html=1;" vertex="1" parent="1">
          <mxGeometry x="-760" y="1590" width="120" height="60" as="geometry" />
        </mxCell>
        <mxCell id="PvUwMP0Rzv3YbJZ_aNjT-106" style="edgeStyle=orthogonalEdgeStyle;rounded=0;orthogonalLoop=1;jettySize=auto;html=1;entryX=1;entryY=0.5;entryDx=0;entryDy=0;" edge="1" parent="1" source="PvUwMP0Rzv3YbJZ_aNjT-101" target="PvUwMP0Rzv3YbJZ_aNjT-98">
          <mxGeometry relative="1" as="geometry" />
        </mxCell>
        <mxCell id="PvUwMP0Rzv3YbJZ_aNjT-107" value="Write to table" style="edgeLabel;html=1;align=center;verticalAlign=middle;resizable=0;points=[];" vertex="1" connectable="0" parent="PvUwMP0Rzv3YbJZ_aNjT-106">
          <mxGeometry x="0.0208" y="-1" relative="1" as="geometry">
            <mxPoint as="offset" />
          </mxGeometry>
        </mxCell>
        <mxCell id="PvUwMP0Rzv3YbJZ_aNjT-101" value="" style="rounded=0;whiteSpace=wrap;html=1;" vertex="1" parent="1">
          <mxGeometry x="-280" y="1490" width="120" height="60" as="geometry" />
        </mxCell>
        <mxCell id="PvUwMP0Rzv3YbJZ_aNjT-104" style="edgeStyle=orthogonalEdgeStyle;rounded=0;orthogonalLoop=1;jettySize=auto;html=1;entryX=0.5;entryY=1;entryDx=0;entryDy=0;" edge="1" parent="1" source="PvUwMP0Rzv3YbJZ_aNjT-103" target="PvUwMP0Rzv3YbJZ_aNjT-101">
          <mxGeometry relative="1" as="geometry" />
        </mxCell>
        <mxCell id="PvUwMP0Rzv3YbJZ_aNjT-105" value="@username" style="edgeLabel;html=1;align=center;verticalAlign=middle;resizable=0;points=[];" vertex="1" connectable="0" parent="PvUwMP0Rzv3YbJZ_aNjT-104">
          <mxGeometry x="-0.1872" y="-4" relative="1" as="geometry">
            <mxPoint as="offset" />
          </mxGeometry>
        </mxCell>
        <mxCell id="PvUwMP0Rzv3YbJZ_aNjT-103" value="Add room" style="rounded=0;whiteSpace=wrap;html=1;" vertex="1" parent="1">
          <mxGeometry x="-400" y="1750" width="120" height="60" as="geometry" />
        </mxCell>
        <mxCell id="PvUwMP0Rzv3YbJZ_aNjT-113" value="TikTokLiveConnection" style="rounded=0;whiteSpace=wrap;html=1;" vertex="1" parent="1">
          <mxGeometry x="-760" y="1180" width="150" height="60" as="geometry" />
        </mxCell>
        <mxCell id="PvUwMP0Rzv3YbJZ_aNjT-118" value="Sign server" style="rounded=0;whiteSpace=wrap;html=1;" vertex="1" parent="1">
          <mxGeometry x="-540" y="1300" width="150" height="60" as="geometry" />
        </mxCell>
        <mxCell id="PvUwMP0Rzv3YbJZ_aNjT-134" style="edgeStyle=orthogonalEdgeStyle;rounded=0;orthogonalLoop=1;jettySize=auto;html=1;exitX=1;exitY=0.75;exitDx=0;exitDy=0;entryX=0;entryY=0.75;entryDx=0;entryDy=0;" edge="1" parent="1" source="PvUwMP0Rzv3YbJZ_aNjT-120" target="PvUwMP0Rzv3YbJZ_aNjT-124">
          <mxGeometry relative="1" as="geometry" />
        </mxCell>
        <mxCell id="PvUwMP0Rzv3YbJZ_aNjT-120" value="WebSocket" style="rounded=0;whiteSpace=wrap;html=1;" vertex="1" parent="1">
          <mxGeometry x="-170" y="1180" width="150" height="60" as="geometry" />
        </mxCell>
        <mxCell id="PvUwMP0Rzv3YbJZ_aNjT-133" style="edgeStyle=orthogonalEdgeStyle;rounded=0;orthogonalLoop=1;jettySize=auto;html=1;exitX=0;exitY=0.25;exitDx=0;exitDy=0;entryX=1;entryY=0.25;entryDx=0;entryDy=0;" edge="1" parent="1" source="PvUwMP0Rzv3YbJZ_aNjT-124" target="PvUwMP0Rzv3YbJZ_aNjT-120">
          <mxGeometry relative="1" as="geometry" />
        </mxCell>
        <mxCell id="PvUwMP0Rzv3YbJZ_aNjT-124" value="TikTok.com" style="rounded=0;whiteSpace=wrap;html=1;" vertex="1" parent="1">
          <mxGeometry x="130" y="1180" width="150" height="60" as="geometry" />
        </mxCell>
        <mxCell id="PvUwMP0Rzv3YbJZ_aNjT-131" style="edgeStyle=orthogonalEdgeStyle;rounded=0;orthogonalLoop=1;jettySize=auto;html=1;entryX=0;entryY=0.5;entryDx=0;entryDy=0;" edge="1" parent="1" source="PvUwMP0Rzv3YbJZ_aNjT-128" target="PvUwMP0Rzv3YbJZ_aNjT-120">
          <mxGeometry relative="1" as="geometry" />
        </mxCell>
        <mxCell id="PvUwMP0Rzv3YbJZ_aNjT-132" value="signed with @username" style="edgeLabel;html=1;align=center;verticalAlign=middle;resizable=0;points=[];" vertex="1" connectable="0" parent="PvUwMP0Rzv3YbJZ_aNjT-131">
          <mxGeometry x="-0.2278" relative="1" as="geometry">
            <mxPoint as="offset" />
          </mxGeometry>
        </mxCell>
        <mxCell id="PvUwMP0Rzv3YbJZ_aNjT-128" value="@username" style="text;html=1;align=center;verticalAlign=middle;resizable=0;points=[];autosize=1;strokeColor=none;fillColor=none;" vertex="1" parent="1">
          <mxGeometry x="-510" y="1195" width="90" height="30" as="geometry" />
        </mxCell>
        <mxCell id="PvUwMP0Rzv3YbJZ_aNjT-129" value="" style="endArrow=classic;html=1;rounded=0;entryX=0.353;entryY=-0.061;entryDx=0;entryDy=0;entryPerimeter=0;" edge="1" parent="1" target="PvUwMP0Rzv3YbJZ_aNjT-118">
          <mxGeometry width="50" height="50" relative="1" as="geometry">
            <mxPoint x="-610" y="1210" as="sourcePoint" />
            <mxPoint x="-560" y="1160" as="targetPoint" />
          </mxGeometry>
        </mxCell>
        <mxCell id="PvUwMP0Rzv3YbJZ_aNjT-130" value="" style="endArrow=classic;html=1;rounded=0;" edge="1" parent="1" target="PvUwMP0Rzv3YbJZ_aNjT-128">
          <mxGeometry width="50" height="50" relative="1" as="geometry">
            <mxPoint x="-470" y="1300" as="sourcePoint" />
            <mxPoint x="-420" y="1250" as="targetPoint" />
          </mxGeometry>
        </mxCell>
        <mxCell id="PvUwMP0Rzv3YbJZ_aNjT-135" value="connect established" style="text;html=1;align=center;verticalAlign=middle;resizable=0;points=[];autosize=1;strokeColor=none;fillColor=none;" vertex="1" parent="1">
          <mxGeometry x="-10" y="1195" width="130" height="30" as="geometry" />
        </mxCell>
        <mxCell id="PvUwMP0Rzv3YbJZ_aNjT-137" value="check if supabase records &lt;br&gt;exists any records for signing" style="text;html=1;align=center;verticalAlign=middle;resizable=0;points=[];autosize=1;strokeColor=none;fillColor=none;" vertex="1" parent="1">
          <mxGeometry x="-371" y="1310" width="180" height="40" as="geometry" />
        </mxCell>
        <mxCell id="PvUwMP0Rzv3YbJZ_aNjT-138" value="node.js + WebSocket" style="text;html=1;align=center;verticalAlign=middle;resizable=0;points=[];autosize=1;strokeColor=none;fillColor=none;fontSize=26;" vertex="1" parent="1">
          <mxGeometry x="-400" y="1090" width="270" height="40" as="geometry" />
        </mxCell>
        <mxCell id="PvUwMP0Rzv3YbJZ_aNjT-140" value="&lt;span style=&quot;color: rgba(0, 0, 0, 0); font-family: monospace; font-size: 0px; text-align: start;&quot;&gt;%3CmxGraphModel%3E%3Croot%3E%3CmxCell%20id%3D%220%22%2F%3E%3CmxCell%20id%3D%221%22%20parent%3D%220%22%2F%3E%3CUserObject%20label%3D%22%26lt%3Bspan%20style%3D%26quot%3Bcolor%3A%20rgb(240%2C%20246%2C%20252)%3B%20font-family%3A%20-apple-system%2C%20%26amp%3Bquot%3Bsystem-ui%26amp%3Bquot%3B%2C%20%26amp%3Bquot%3BSegoe%20UI%26amp%3Bquot%3B%2C%20%26amp%3Bquot%3BNoto%20Sans%26amp%3Bquot%3B%2C%20Helvetica%2C%20Arial%2C%20sans-serif%2C%20%26amp%3Bquot%3BApple%20Color%20Emoji%26amp%3Bquot%3B%2C%20%26amp%3Bquot%3BSegoe%20UI%20Emoji%26amp%3Bquot%3B%3B%20font-size%3A%2016px%3B%20font-style%3A%20normal%3B%20font-variant-ligatures%3A%20normal%3B%20font-variant-caps%3A%20normal%3B%20font-weight%3A%20400%3B%20letter-spacing%3A%20normal%3B%20orphans%3A%202%3B%20text-align%3A%20start%3B%20text-indent%3A%200px%3B%20text-transform%3A%20none%3B%20widows%3A%202%3B%20word-spacing%3A%200px%3B%20-webkit-text-stroke-width%3A%200px%3B%20white-space%3A%20normal%3B%20background-color%3A%20rgb(13%2C%2017%2C%2023)%3B%20text-decoration-thickness%3A%20initial%3B%20text-decoration-style%3A%20initial%3B%20text-decoration-color%3A%20initial%3B%20display%3A%20inline%20!important%3B%20float%3A%20none%3B%26quot%3B%26gt%3BThis%20JavaScript%20library%20is%20intended%20for%20use%20in%26lt%3Bspan%26gt%3B%26amp%3Bnbsp%3B%26lt%3B%2Fspan%26gt%3B%26lt%3B%2Fspan%26gt%3B%26lt%3Ba%20href%3D%26quot%3Bhttps%3A%2F%2Fnodejs.org%2F%26quot%3B%20rel%3D%26quot%3Bnofollow%26quot%3B%20style%3D%26quot%3Bbox-sizing%3A%20border-box%3B%20background-color%3A%20rgb(13%2C%2017%2C%2023)%3B%20color%3A%20rgb(68%2C%20147%2C%20248)%3B%20text-decoration%3A%20underline%3B%20text-underline-offset%3A%200.2rem%3B%20font-family%3A%20-apple-system%2C%20%26amp%3Bquot%3Bsystem-ui%26amp%3Bquot%3B%2C%20%26amp%3Bquot%3BSegoe%20UI%26amp%3Bquot%3B%2C%20%26amp%3Bquot%3BNoto%20Sans%26amp%3Bquot%3B%2C%20Helvetica%2C%20Arial%2C%20sans-serif%2C%20%26amp%3Bquot%3BApple%20Color%20Emoji%26amp%3Bquot%3B%2C%20%26amp%3Bquot%3BSegoe%20UI%20Emoji%26amp%3Bquot%3B%3B%20font-size%3A%2016px%3B%20font-style%3A%20normal%3B%20font-variant-ligatures%3A%20normal%3B%20font-variant-caps%3A%20normal%3B%20font-weight%3A%20400%3B%20letter-spacing%3A%20normal%3B%20orphans%3A%202%3B%20text-align%3A%20start%3B%20text-indent%3A%200px%3B%20text-transform%3A%20none%3B%20widows%3A%202%3B%20word-spacing%3A%200px%3B%20-webkit-text-stroke-width%3A%200px%3B%20white-space%3A%20normal%3B%26quot%3B%26gt%3BNode.js%26lt%3B%2Fa%26gt%3B%26lt%3Bspan%20style%3D%26quot%3Bcolor%3A%20rgb(240%2C%20246%2C%20252)%3B%20font-family%3A%20-apple-system%2C%20%26amp%3Bquot%3Bsystem-ui%26amp%3Bquot%3B%2C%20%26amp%3Bquot%3BSegoe%20UI%26amp%3Bquot%3B%2C%20%26amp%3Bquot%3BNoto%20Sans%26amp%3Bquot%3B%2C%20Helvetica%2C%20Arial%2C%20sans-serif%2C%20%26amp%3Bquot%3BApple%20Color%20Emoji%26amp%3Bquot%3B%2C%20%26amp%3Bquot%3BSegoe%20UI%20Emoji%26amp%3Bquot%3B%3B%20font-size%3A%2016px%3B%20font-style%3A%20normal%3B%20font-variant-ligatures%3A%20normal%3B%20font-variant-caps%3A%20normal%3B%20font-weight%3A%20400%3B%20letter-spacing%3A%20normal%3B%20orphans%3A%202%3B%20text-align%3A%20start%3B%20text-indent%3A%200px%3B%20text-transform%3A%20none%3B%20widows%3A%202%3B%20word-spacing%3A%200px%3B%20-webkit-text-stroke-width%3A%200px%3B%20white-space%3A%20normal%3B%20background-color%3A%20rgb(13%2C%2017%2C%2023)%3B%20text-decoration-thickness%3A%20initial%3B%20text-decoration-style%3A%20initial%3B%20text-decoration-color%3A%20initial%3B%20display%3A%20inline%20!important%3B%20float%3A%20none%3B%26quot%3B%26gt%3B%26lt%3Bspan%26gt%3B%26amp%3Bnbsp%3B%26lt%3B%2Fspan%26gt%3Benvironments.%20If%20you%20want%20to%20process%20or%20display%20the%20data%20in%20the%20browser%20(client-side)%2C%20you%20need%20to%20transfer%20the%20data%20from%20the%20Node.js%20environment%20to%20the%20browser.%20You%20can%20build%20a%20WebSocket%20server%2C%20or%20use%20the%26lt%3Bspan%26gt%3B%26amp%3Bnbsp%3B%26lt%3B%2Fspan%26gt%3B%26lt%3B%2Fspan%26gt%3B%26lt%3Ba%20href%3D%26quot%3Bhttps%3A%2F%2Fwww.eulerstream.com%2Fdocs%2Fsign-server%2Fwebsockets%26quot%3B%20rel%3D%26quot%3Bnofollow%26quot%3B%20style%3D%26quot%3Bbox-sizing%3A%20border-box%3B%20background-color%3A%20rgb(13%2C%2017%2C%2023)%3B%20color%3A%20rgb(68%2C%20147%2C%20248)%3B%20text-decoration%3A%20underline%3B%20text-underline-offset%3A%200.2rem%3B%20font-family%3A%20-apple-system%2C%20%26amp%3Bquot%3Bsystem-ui%26amp%3Bquot%3B%2C%20%26amp%3Bquot%3BSegoe%20UI%26amp%3Bquot%3B%2C%20%26amp%3Bquot%3BNoto%20Sans%26amp%3Bquot%3B%2C%20Helvetica%2C%20Arial%2C%20sans-serif%2C%20%26amp%3Bquot%3BApple%20Color%20Emoji%26amp%3Bquot%3B%2C%20%26amp%3Bquot%3BSegoe%20UI%20Emoji%26amp%3Bquot%3B%3B%20font-size%3A%2016px%3B%20font-style%3A%20normal%3B%20font-variant-ligatures%3A%20normal%3B%20font-variant-caps%3A%20normal%3B%20font-weight%3A%20400%3B%20letter-spacing%3A%20normal%3B%20orphans%3A%202%3B%20text-align%3A%20start%3B%20text-indent%3A%200px%3B%20text-transform%3A%20none%3B%20widows%3A%202%3B%20word-spacing%3A%200px%3B%20-webkit-text-stroke-width%3A%200px%3B%20white-space%3A%20normal%3B%26quot%3B%26gt%3BEuler%20WebSocket%20API%26lt%3B%2Fa%26gt%3B%26lt%3Bspan%20style%3D%26quot%3Bcolor%3A%20rgb(240%2C%20246%2C%20252)%3B%20font-family%3A%20-apple-system%2C%20%26amp%3Bquot%3Bsystem-ui%26amp%3Bquot%3B%2C%20%26amp%3Bquot%3BSegoe%20UI%26amp%3Bquot%3B%2C%20%26amp%3Bquot%3BNoto%20Sans%26amp%3Bquot%3B%2C%20Helvetica%2C%20Arial%2C%20sans-serif%2C%20%26amp%3Bquot%3BApple%20Color%20Emoji%26amp%3Bquot%3B%2C%20%26amp%3Bquot%3BSegoe%20UI%20Emoji%26amp%3Bquot%3B%3B%20font-size%3A%2016px%3B%20font-style%3A%20normal%3B%20font-variant-ligatures%3A%20normal%3B%20font-variant-caps%3A%20normal%3B%20font-weight%3A%20400%3B%20letter-spacing%3A%20normal%3B%20orphans%3A%202%3B%20text-align%3A%20start%3B%20text-indent%3A%200px%3B%20text-transform%3A%20none%3B%20widows%3A%202%3B%20word-spacing%3A%200px%3B%20-webkit-text-stroke-width%3A%200px%3B%20white-space%3A%20normal%3B%20background-color%3A%20rgb(13%2C%2017%2C%2023)%3B%20text-decoration-thickness%3A%20initial%3B%20text-decoration-style%3A%20initial%3B%20text-decoration-color%3A%20initial%3B%20display%3A%20inline%20!important%3B%20float%3A%20none%3B%26quot%3B%26gt%3B%26lt%3Bspan%26gt%3B%26amp%3Bnbsp%3B%26lt%3B%2Fspan%26gt%3Bto%20handle%20this%20for%20you.%26lt%3B%2Fspan%26gt%3B%22%20link%3D%22%26lt%3Bspan%20style%3D%26quot%3Bcolor%3A%20rgb(240%2C%20246%2C%20252)%3B%20font-family%3A%20-apple-system%2C%20%26amp%3Bquot%3Bsystem-ui%26amp%3Bquot%3B%2C%20%26amp%3Bquot%3BSegoe%20UI%26amp%3Bquot%3B%2C%20%26amp%3Bquot%3BNoto%20Sans%26amp%3Bquot%3B%2C%20Helvetica%2C%20Arial%2C%20sans-serif%2C%20%26amp%3Bquot%3BApple%20Color%20Emoji%26amp%3Bquot%3B%2C%20%26amp%3Bquot%3BSegoe%20UI%20Emoji%26amp%3Bquot%3B%3B%20font-size%3A%2016px%3B%20font-style%3A%20normal%3B%20font-variant-ligatures%3A%20normal%3B%20font-variant-caps%3A%20normal%3B%20font-weight%3A%20400%3B%20letter-spacing%3A%20normal%3B%20orphans%3A%202%3B%20text-align%3A%20start%3B%20text-indent%3A%200px%3B%20text-transform%3A%20none%3B%20widows%3A%202%3B%20word-spacing%3A%200px%3B%20-webkit-text-stroke-width%3A%200px%3B%20white-space%3A%20normal%3B%20background-color%3A%20rgb(13%2C%2017%2C%2023)%3B%20text-decoration-thickness%3A%20initial%3B%20text-decoration-style%3A%20initial%3B%20text-decoration-color%3A%20initial%3B%20display%3A%20inline%20!important%3B%20float%3A%20none%3B%26quot%3B%26gt%3BThis%20JavaScript%20library%20is%20intended%20for%20use%20in%26lt%3Bspan%26gt%3B%26amp%3Bnbsp%3B%26lt%3B%2Fspan%26gt%3B%26lt%3B%2Fspan%26gt%3B%26lt%3Ba%20href%3D%26quot%3Bhttps%3A%2F%2Fnodejs.org%2F%26quot%3B%20rel%3D%26quot%3Bnofollow%26quot%3B%20style%3D%26quot%3Bbox-sizing%3A%20border-box%3B%20background-color%3A%20rgb(13%2C%2017%2C%2023)%3B%20color%3A%20rgb(68%2C%20147%2C%20248)%3B%20text-decoration%3A%20underline%3B%20text-underline-offset%3A%200.2rem%3B%20font-family%3A%20-apple-system%2C%20%26amp%3Bquot%3Bsystem-ui%26amp%3Bquot%3B%2C%20%26amp%3Bquot%3BSegoe%20UI%26amp%3Bquot%3B%2C%20%26amp%3Bquot%3BNoto%20Sans%26amp%3Bquot%3B%2C%20Helvetica%2C%20Arial%2C%20sans-serif%2C%20%26amp%3Bquot%3BApple%20Color%20Emoji%26amp%3Bquot%3B%2C%20%26amp%3Bquot%3BSegoe%20UI%20Emoji%26amp%3Bquot%3B%3B%20font-size%3A%2016px%3B%20font-style%3A%20normal%3B%20font-variant-ligatures%3A%20normal%3B%20font-variant-caps%3A%20normal%3B%20font-weight%3A%20400%3B%20letter-spacing%3A%20normal%3B%20orphans%3A%202%3B%20text-align%3A%20start%3B%20text-indent%3A%200px%3B%20text-transform%3A%20none%3B%20widows%3A%202%3B%20word-spacing%3A%200px%3B%20-webkit-text-stroke-width%3A%200px%3B%20white-space%3A%20normal%3B%26quot%3B%26gt%3BNode.js%26lt%3B%2Fa%26gt%3B%26lt%3Bspan%20style%3D%26quot%3Bcolor%3A%20rgb(240%2C%20246%2C%20252)%3B%20font-family%3A%20-apple-system%2C%20%26amp%3Bquot%3Bsystem-ui%26amp%3Bquot%3B%2C%20%26amp%3Bquot%3BSegoe%20UI%26amp%3Bquot%3B%2C%20%26amp%3Bquot%3BNoto%20Sans%26amp%3Bquot%3B%2C%20Helvetica%2C%20Arial%2C%20sans-serif%2C%20%26amp%3Bquot%3BApple%20Color%20Emoji%26amp%3Bquot%3B%2C%20%26amp%3Bquot%3BSegoe%20UI%20Emoji%26amp%3Bquot%3B%3B%20font-size%3A%2016px%3B%20font-style%3A%20normal%3B%20font-variant-ligatures%3A%20normal%3B%20font-variant-caps%3A%20normal%3B%20font-weight%3A%20400%3B%20letter-spacing%3A%20normal%3B%20orphans%3A%202%3B%20text-align%3A%20start%3B%20text-indent%3A%200px%3B%20text-transform%3A%20none%3B%20widows%3A%202%3B%20word-spacing%3A%200px%3B%20-webkit-text-stroke-width%3A%200px%3B%20white-space%3A%20normal%3B%20background-color%3A%20rgb(13%2C%2017%2C%2023)%3B%20text-decoration-thickness%3A%20initial%3B%20text-decoration-style%3A%20initial%3B%20text-decoration-color%3A%20initial%3B%20display%3A%20inline%20!important%3B%20float%3A%20none%3B%26quot%3B%26gt%3B%26lt%3Bspan%26gt%3B%26amp%3Bnbsp%3B%26lt%3B%2Fspan%26gt%3Benvironments.%20If%20you%20want%20to%20process%20or%20display%20the%20data%20in%20the%20browser%20(client-side)%2C%20you%20need%20to%20transfer%20the%20data%20from%20the%20Node.js%20environment%20to%20the%20browser.%20You%20can%20build%20a%20WebSocket%20server%2C%20or%20use%20the%26lt%3Bspan%26gt%3B%26amp%3Bnbsp%3B%26lt%3B%2Fspan%26gt%3B%26lt%3B%2Fspan%26gt%3B%26lt%3Ba%20href%3D%26quot%3Bhttps%3A%2F%2Fwww.eulerstream.com%2Fdocs%2Fsign-server%2Fwebsockets%26quot%3B%20rel%3D%26quot%3Bnofollow%26quot%3B%20style%3D%26quot%3Bbox-sizing%3A%20border-box%3B%20background-color%3A%20rgb(13%2C%2017%2C%2023)%3B%20color%3A%20rgb(68%2C%20147%2C%20248)%3B%20text-decoration%3A%20underline%3B%20text-underline-offset%3A%200.2rem%3B%20font-family%3A%20-apple-system%2C%20%26amp%3Bquot%3Bsystem-ui%26amp%3Bquot%3B%2C%20%26amp%3Bquot%3BSegoe%20UI%26amp%3Bquot%3B%2C%20%26amp%3Bquot%3BNoto%20Sans%26amp%3Bquot%3B%2C%20Helvetica%2C%20Arial%2C%20sans-serif%2C%20%26amp%3Bquot%3BApple%20Color%20Emoji%26amp%3Bquot%3B%2C%20%26amp%3Bquot%3BSegoe%20UI%20Emoji%26amp%3Bquot%3B%3B%20font-size%3A%2016px%3B%20font-style%3A%20normal%3B%20font-variant-ligatures%3A%20normal%3B%20font-variant-caps%3A%20normal%3B%20font-weight%3A%20400%3B%20letter-spacing%3A%20normal%3B%20orphans%3A%202%3B%20text-align%3A%20start%3B%20text-indent%3A%200px%3B%20text-transform%3A%20none%3B%20widows%3A%202%3B%20word-spacing%3A%200px%3B%20-webkit-text-stroke-width%3A%200px%3B%20white-space%3A%20normal%3B%26quot%3B%26gt%3BEuler%20WebSocket%20API%26lt%3B%2Fa%26gt%3B%26lt%3Bspan%20style%3D%26quot%3Bcolor%3A%20rgb(240%2C%20246%2C%20252)%3B%20font-family%3A%20-apple-system%2C%20%26amp%3Bquot%3Bsystem-ui%26amp%3Bquot%3B%2C%20%26amp%3Bquot%3BSegoe%20UI%26amp%3Bquot%3B%2C%20%26amp%3Bquot%3BNoto%20Sans%26amp%3Bquot%3B%2C%20Helvetica%2C%20Arial%2C%20sans-serif%2C%20%26amp%3Bquot%3BApple%20Color%20Emoji%26amp%3Bquot%3B%2C%20%26amp%3Bquot%3BSegoe%20UI%20Emoji%26amp%3Bquot%3B%3B%20font-size%3A%2016px%3B%20font-style%3A%20normal%3B%20font-variant-ligatures%3A%20normal%3B%20font-variant-caps%3A%20normal%3B%20font-weight%3A%20400%3B%20letter-spacing%3A%20normal%3B%20orphans%3A%202%3B%20text-align%3A%20start%3B%20text-indent%3A%200px%3B%20text-transform%3A%20none%3B%20widows%3A%202%3B%20word-spacing%3A%200px%3B%20-webkit-text-stroke-width%3A%200px%3B%20white-space%3A%20normal%3B%20background-color%3A%20rgb(13%2C%2017%2C%2023)%3B%20text-decoration-thickness%3A%20initial%3B%20text-decoration-style%3A%20initial%3B%20text-decoration-color%3A%20initial%3B%20display%3A%20inline%20!important%3B%20float%3A%20none%3B%26quot%3B%26gt%3B%26lt%3Bspan%26gt%3B%26amp%3Bnbsp%3B%26lt%3B%2Fspan%26gt%3Bto%20handle%20this%20for%20you.%26lt%3B%2Fspan%26gt%3B%22%20id%3D%222%22%3E%3CmxCell%20style%3D%22text%3BwhiteSpace%3Dwrap%3Bhtml%3D1%3B%22%20vertex%3D%221%22%20parent%3D%221%22%3E%3CmxGeometry%20x%3D%22-770%22%20y%3D%221940%22%20width%3D%22560%22%20height%3D%22120%22%20as%3D%22geometry%22%2F%3E%3C%2FmxCell%3E%3C%2FUserObject%3E%3C%2Froot%3E%3C%2FmxGraphModel%3E&lt;/span&gt;" style="text;html=1;align=center;verticalAlign=middle;resizable=0;points=[];autosize=1;strokeColor=none;fillColor=none;" vertex="1" parent="1">
          <mxGeometry x="-680" y="1978" width="20" height="30" as="geometry" />
        </mxCell>
        <UserObject label="&lt;span data-mx-given-colors=&quot;{&amp;quot;color&amp;quot;:&amp;quot;rgb(240, 246, 252)&amp;quot;,&amp;quot;background-color&amp;quot;:&amp;quot;rgb(13, 17, 23)&amp;quot;}&quot; style=&quot;forced-color-adjust: none; font-style: normal; font-variant-ligatures: normal; font-variant-caps: normal; font-weight: 400; letter-spacing: normal; orphans: 2; text-indent: 0px; text-transform: none; widows: 2; word-spacing: 0px; -webkit-text-stroke-width: 0px; white-space: normal; text-decoration-thickness: initial; text-decoration-style: initial; text-decoration-color: initial; color: light-dark(rgb(240, 246, 252), rgb(22, 27, 33)); font-family: -apple-system, &amp;quot;system-ui&amp;quot;, &amp;quot;Segoe UI&amp;quot;, &amp;quot;Noto Sans&amp;quot;, Helvetica, Arial, sans-serif, &amp;quot;Apple Color Emoji&amp;quot;, &amp;quot;Segoe UI Emoji&amp;quot;; font-size: 16px; text-align: start; background-color: light-dark(rgb(13, 17, 23), rgb(220, 223, 229)); float: none; display: inline !important;&quot;&gt;This JavaScript library is intended for use in&lt;span style=&quot;forced-color-adjust: none;&quot;&gt;&amp;nbsp;&lt;/span&gt;&lt;/span&gt;&lt;a href=&quot;https://nodejs.org/&quot; rel=&quot;nofollow&quot; data-mx-given-colors=&quot;{&amp;quot;background-color&amp;quot;:&amp;quot;rgb(13, 17, 23)&amp;quot;,&amp;quot;color&amp;quot;:&amp;quot;rgb(68, 147, 248)&amp;quot;}&quot; style=&quot;forced-color-adjust: none; font-style: normal; font-variant-ligatures: normal; font-variant-caps: normal; font-weight: 400; letter-spacing: normal; orphans: 2; text-indent: 0px; text-transform: none; widows: 2; word-spacing: 0px; -webkit-text-stroke-width: 0px; white-space: normal; box-sizing: border-box; background-color: light-dark(rgb(13, 17, 23), rgb(220, 223, 229)); color: light-dark(rgb(68, 147, 248), rgb(59, 127, 214)); text-decoration: underline; text-underline-offset: 0.2rem; font-family: -apple-system, &amp;quot;system-ui&amp;quot;, &amp;quot;Segoe UI&amp;quot;, &amp;quot;Noto Sans&amp;quot;, Helvetica, Arial, sans-serif, &amp;quot;Apple Color Emoji&amp;quot;, &amp;quot;Segoe UI Emoji&amp;quot;; font-size: 16px; text-align: start;&quot;&gt;Node.js&lt;/a&gt;&lt;span data-mx-given-colors=&quot;{&amp;quot;color&amp;quot;:&amp;quot;rgb(240, 246, 252)&amp;quot;,&amp;quot;background-color&amp;quot;:&amp;quot;rgb(13, 17, 23)&amp;quot;}&quot; style=&quot;forced-color-adjust: none; font-style: normal; font-variant-ligatures: normal; font-variant-caps: normal; font-weight: 400; letter-spacing: normal; orphans: 2; text-indent: 0px; text-transform: none; widows: 2; word-spacing: 0px; -webkit-text-stroke-width: 0px; white-space: normal; text-decoration-thickness: initial; text-decoration-style: initial; text-decoration-color: initial; color: light-dark(rgb(240, 246, 252), rgb(22, 27, 33)); font-family: -apple-system, &amp;quot;system-ui&amp;quot;, &amp;quot;Segoe UI&amp;quot;, &amp;quot;Noto Sans&amp;quot;, Helvetica, Arial, sans-serif, &amp;quot;Apple Color Emoji&amp;quot;, &amp;quot;Segoe UI Emoji&amp;quot;; font-size: 16px; text-align: start; background-color: light-dark(rgb(13, 17, 23), rgb(220, 223, 229)); float: none; display: inline !important;&quot;&gt;&lt;span style=&quot;forced-color-adjust: none;&quot;&gt;&amp;nbsp;&lt;/span&gt;environments. If you want to process or display the data in the browser (client-side), you need to transfer the data from the Node.js environment to the browser. You can build a WebSocket server, or use the&lt;span style=&quot;forced-color-adjust: none;&quot;&gt;&amp;nbsp;&lt;/span&gt;&lt;/span&gt;&lt;a href=&quot;https://www.eulerstream.com/docs/sign-server/websockets&quot; rel=&quot;nofollow&quot; data-mx-given-colors=&quot;{&amp;quot;background-color&amp;quot;:&amp;quot;rgb(13, 17, 23)&amp;quot;,&amp;quot;color&amp;quot;:&amp;quot;rgb(68, 147, 248)&amp;quot;}&quot; style=&quot;forced-color-adjust: none; font-style: normal; font-variant-ligatures: normal; font-variant-caps: normal; font-weight: 400; letter-spacing: normal; orphans: 2; text-indent: 0px; text-transform: none; widows: 2; word-spacing: 0px; -webkit-text-stroke-width: 0px; white-space: normal; box-sizing: border-box; background-color: light-dark(rgb(13, 17, 23), rgb(220, 223, 229)); color: light-dark(rgb(68, 147, 248), rgb(59, 127, 214)); text-decoration: underline; text-underline-offset: 0.2rem; font-family: -apple-system, &amp;quot;system-ui&amp;quot;, &amp;quot;Segoe UI&amp;quot;, &amp;quot;Noto Sans&amp;quot;, Helvetica, Arial, sans-serif, &amp;quot;Apple Color Emoji&amp;quot;, &amp;quot;Segoe UI Emoji&amp;quot;; font-size: 16px; text-align: start;&quot;&gt;Euler WebSocket API&lt;/a&gt;&lt;span data-mx-given-colors=&quot;{&amp;quot;color&amp;quot;:&amp;quot;rgb(240, 246, 252)&amp;quot;,&amp;quot;background-color&amp;quot;:&amp;quot;rgb(13, 17, 23)&amp;quot;}&quot; style=&quot;forced-color-adjust: none; font-style: normal; font-variant-ligatures: normal; font-variant-caps: normal; font-weight: 400; letter-spacing: normal; orphans: 2; text-indent: 0px; text-transform: none; widows: 2; word-spacing: 0px; -webkit-text-stroke-width: 0px; white-space: normal; text-decoration-thickness: initial; text-decoration-style: initial; text-decoration-color: initial; color: light-dark(rgb(240, 246, 252), rgb(22, 27, 33)); font-family: -apple-system, &amp;quot;system-ui&amp;quot;, &amp;quot;Segoe UI&amp;quot;, &amp;quot;Noto Sans&amp;quot;, Helvetica, Arial, sans-serif, &amp;quot;Apple Color Emoji&amp;quot;, &amp;quot;Segoe UI Emoji&amp;quot;; font-size: 16px; text-align: start; background-color: light-dark(rgb(13, 17, 23), rgb(220, 223, 229)); float: none; display: inline !important;&quot;&gt;&lt;span style=&quot;forced-color-adjust: none;&quot;&gt;&amp;nbsp;&lt;/span&gt;to handle this for you.&lt;/span&gt;" link="&lt;span data-mx-given-colors=&quot;{&amp;quot;color&amp;quot;:&amp;quot;rgb(240, 246, 252)&amp;quot;,&amp;quot;background-color&amp;quot;:&amp;quot;rgb(13, 17, 23)&amp;quot;}&quot; style=&quot;forced-color-adjust: none; font-style: normal; font-variant-ligatures: normal; font-variant-caps: normal; font-weight: 400; letter-spacing: normal; orphans: 2; text-indent: 0px; text-transform: none; widows: 2; word-spacing: 0px; -webkit-text-stroke-width: 0px; white-space: normal; text-decoration-thickness: initial; text-decoration-style: initial; text-decoration-color: initial; color: light-dark(rgb(240, 246, 252), rgb(22, 27, 33)); font-family: -apple-system, &amp;quot;system-ui&amp;quot;, &amp;quot;Segoe UI&amp;quot;, &amp;quot;Noto Sans&amp;quot;, Helvetica, Arial, sans-serif, &amp;quot;Apple Color Emoji&amp;quot;, &amp;quot;Segoe UI Emoji&amp;quot;; font-size: 16px; text-align: start; background-color: light-dark(rgb(13, 17, 23), rgb(220, 223, 229)); float: none; display: inline !important;&quot;&gt;This JavaScript library is intended for use in&lt;span style=&quot;forced-color-adjust: none;&quot;&gt;&amp;nbsp;&lt;/span&gt;&lt;/span&gt;&lt;a href=&quot;https://nodejs.org/&quot; rel=&quot;nofollow&quot; data-mx-given-colors=&quot;{&amp;quot;background-color&amp;quot;:&amp;quot;rgb(13, 17, 23)&amp;quot;,&amp;quot;color&amp;quot;:&amp;quot;rgb(68, 147, 248)&amp;quot;}&quot; style=&quot;forced-color-adjust: none; font-style: normal; font-variant-ligatures: normal; font-variant-caps: normal; font-weight: 400; letter-spacing: normal; orphans: 2; text-indent: 0px; text-transform: none; widows: 2; word-spacing: 0px; -webkit-text-stroke-width: 0px; white-space: normal; box-sizing: border-box; background-color: light-dark(rgb(13, 17, 23), rgb(220, 223, 229)); color: light-dark(rgb(68, 147, 248), rgb(59, 127, 214)); text-decoration: underline; text-underline-offset: 0.2rem; font-family: -apple-system, &amp;quot;system-ui&amp;quot;, &amp;quot;Segoe UI&amp;quot;, &amp;quot;Noto Sans&amp;quot;, Helvetica, Arial, sans-serif, &amp;quot;Apple Color Emoji&amp;quot;, &amp;quot;Segoe UI Emoji&amp;quot;; font-size: 16px; text-align: start;&quot;&gt;Node.js&lt;/a&gt;&lt;span data-mx-given-colors=&quot;{&amp;quot;color&amp;quot;:&amp;quot;rgb(240, 246, 252)&amp;quot;,&amp;quot;background-color&amp;quot;:&amp;quot;rgb(13, 17, 23)&amp;quot;}&quot; style=&quot;forced-color-adjust: none; font-style: normal; font-variant-ligatures: normal; font-variant-caps: normal; font-weight: 400; letter-spacing: normal; orphans: 2; text-indent: 0px; text-transform: none; widows: 2; word-spacing: 0px; -webkit-text-stroke-width: 0px; white-space: normal; text-decoration-thickness: initial; text-decoration-style: initial; text-decoration-color: initial; color: light-dark(rgb(240, 246, 252), rgb(22, 27, 33)); font-family: -apple-system, &amp;quot;system-ui&amp;quot;, &amp;quot;Segoe UI&amp;quot;, &amp;quot;Noto Sans&amp;quot;, Helvetica, Arial, sans-serif, &amp;quot;Apple Color Emoji&amp;quot;, &amp;quot;Segoe UI Emoji&amp;quot;; font-size: 16px; text-align: start; background-color: light-dark(rgb(13, 17, 23), rgb(220, 223, 229)); float: none; display: inline !important;&quot;&gt;&lt;span style=&quot;forced-color-adjust: none;&quot;&gt;&amp;nbsp;&lt;/span&gt;environments. If you want to process or display the data in the browser (client-side), you need to transfer the data from the Node.js environment to the browser. You can build a WebSocket server, or use the&lt;span style=&quot;forced-color-adjust: none;&quot;&gt;&amp;nbsp;&lt;/span&gt;&lt;/span&gt;&lt;a href=&quot;https://www.eulerstream.com/docs/sign-server/websockets&quot; rel=&quot;nofollow&quot; data-mx-given-colors=&quot;{&amp;quot;background-color&amp;quot;:&amp;quot;rgb(13, 17, 23)&amp;quot;,&amp;quot;color&amp;quot;:&amp;quot;rgb(68, 147, 248)&amp;quot;}&quot; style=&quot;forced-color-adjust: none; font-style: normal; font-variant-ligatures: normal; font-variant-caps: normal; font-weight: 400; letter-spacing: normal; orphans: 2; text-indent: 0px; text-transform: none; widows: 2; word-spacing: 0px; -webkit-text-stroke-width: 0px; white-space: normal; box-sizing: border-box; background-color: light-dark(rgb(13, 17, 23), rgb(220, 223, 229)); color: light-dark(rgb(68, 147, 248), rgb(59, 127, 214)); text-decoration: underline; text-underline-offset: 0.2rem; font-family: -apple-system, &amp;quot;system-ui&amp;quot;, &amp;quot;Segoe UI&amp;quot;, &amp;quot;Noto Sans&amp;quot;, Helvetica, Arial, sans-serif, &amp;quot;Apple Color Emoji&amp;quot;, &amp;quot;Segoe UI Emoji&amp;quot;; font-size: 16px; text-align: start;&quot;&gt;Euler WebSocket API&lt;/a&gt;&lt;span data-mx-given-colors=&quot;{&amp;quot;color&amp;quot;:&amp;quot;rgb(240, 246, 252)&amp;quot;,&amp;quot;background-color&amp;quot;:&amp;quot;rgb(13, 17, 23)&amp;quot;}&quot; style=&quot;forced-color-adjust: none; font-style: normal; font-variant-ligatures: normal; font-variant-caps: normal; font-weight: 400; letter-spacing: normal; orphans: 2; text-indent: 0px; text-transform: none; widows: 2; word-spacing: 0px; -webkit-text-stroke-width: 0px; white-space: normal; text-decoration-thickness: initial; text-decoration-style: initial; text-decoration-color: initial; color: light-dark(rgb(240, 246, 252), rgb(22, 27, 33)); font-family: -apple-system, &amp;quot;system-ui&amp;quot;, &amp;quot;Segoe UI&amp;quot;, &amp;quot;Noto Sans&amp;quot;, Helvetica, Arial, sans-serif, &amp;quot;Apple Color Emoji&amp;quot;, &amp;quot;Segoe UI Emoji&amp;quot;; font-size: 16px; text-align: start; background-color: light-dark(rgb(13, 17, 23), rgb(220, 223, 229)); float: none; display: inline !important;&quot;&gt;&lt;span style=&quot;forced-color-adjust: none;&quot;&gt;&amp;nbsp;&lt;/span&gt;to handle this for you.&lt;/span&gt;" id="PvUwMP0Rzv3YbJZ_aNjT-143">
          <mxCell style="text;whiteSpace=wrap;html=1;" vertex="1" parent="1">
            <mxGeometry x="-770" y="1920" width="560" height="120" as="geometry" />
          </mxCell>
        </UserObject>
        <mxCell id="PvUwMP0Rzv3YbJZ_aNjT-144" value="" style="endArrow=none;html=1;rounded=0;" edge="1" parent="1">
          <mxGeometry width="50" height="50" relative="1" as="geometry">
            <mxPoint x="360" y="1510" as="sourcePoint" />
            <mxPoint x="360" y="1040" as="targetPoint" />
          </mxGeometry>
        </mxCell>
        <mxCell id="PvUwMP0Rzv3YbJZ_aNjT-145" value="next.js + node.js + WebSocket" style="text;html=1;align=center;verticalAlign=middle;resizable=0;points=[];autosize=1;strokeColor=none;fillColor=none;fontSize=26;" vertex="1" parent="1">
          <mxGeometry x="507" y="1100" width="370" height="40" as="geometry" />
        </mxCell>
      </root>
    </mxGraphModel>
  </diagram>
</mxfile>
